<?xml version="1.0" encoding="UTF-8" standalone="no"?>
<!-- Created with Inkscape (http://www.inkscape.org/) -->

<svg
   xmlns:dc="http://purl.org/dc/elements/1.1/"
   xmlns:cc="http://creativecommons.org/ns#"
   xmlns:rdf="http://www.w3.org/1999/02/22-rdf-syntax-ns#"
   xmlns:svg="http://www.w3.org/2000/svg"
   xmlns="http://www.w3.org/2000/svg"
   xmlns:xlink="http://www.w3.org/1999/xlink"
   xmlns:sodipodi="http://sodipodi.sourceforge.net/DTD/sodipodi-0.dtd"
   xmlns:inkscape="http://www.inkscape.org/namespaces/inkscape"
   width="744.09448819"
   height="1052.3622047"
   id="svg2"
   version="1.1"
   inkscape:version="0.48.3.1 r9886"
   sodipodi:docname="smit.svg"
   inkscape:export-filename="/home/fred/reference/smit/smit.png"
   inkscape:export-xdpi="100"
   inkscape:export-ydpi="100">
  <defs
     id="defs4">
    <linearGradient
       id="linearGradient3847">
      <stop
         style="stop-color:#00bbf0;stop-opacity:1;"
         offset="0"
         id="stop3849" />
      <stop
         style="stop-color:#00bb00;stop-opacity:0;"
         offset="1"
         id="stop3851" />
    </linearGradient>
    <linearGradient
       inkscape:collect="always"
       xlink:href="#linearGradient3847"
       id="linearGradient3853"
       x1="237.14285"
       y1="367.00504"
       x2="472.85715"
       y2="367.00504"
       gradientUnits="userSpaceOnUse"
       gradientTransform="translate(-14.285714,25.714286)" />
  </defs>
  <sodipodi:namedview
     id="base"
     pagecolor="#ffffff"
     bordercolor="#666666"
     borderopacity="1.0"
     inkscape:pageopacity="0.0"
     inkscape:pageshadow="2"
     inkscape:zoom="1.4"
     inkscape:cx="343.10035"
     inkscape:cy="604.86626"
     inkscape:document-units="px"
     inkscape:current-layer="layer1"
     showgrid="false"
     showguides="true"
     inkscape:guide-bbox="true"
     inkscape:window-width="1175"
     inkscape:window-height="923"
     inkscape:window-x="0"
     inkscape:window-y="1"
     inkscape:window-maximized="0" />
  <metadata
     id="metadata7">
    <rdf:RDF>
      <cc:Work
         rdf:about="">
        <dc:format>image/svg+xml</dc:format>
        <dc:type
           rdf:resource="http://purl.org/dc/dcmitype/StillImage" />
        <dc:title></dc:title>
      </cc:Work>
    </rdf:RDF>
  </metadata>
  <g
     inkscape:label="Layer 1"
     inkscape:groupmode="layer"
     id="layer1">
    <path
       style="fill:url(#linearGradient3853);fill-opacity:1;stroke:none"
       d="m 477.14286,346.6479 -254.28571,111.42857 235.71428,0"
       id="path3837"
       inkscape:connector-curvature="0"
       sodipodi:nodetypes="ccc" />
    <path
       style="font-size:109.24073029px;font-style:normal;font-weight:normal;line-height:125%;letter-spacing:0px;word-spacing:0px;fill:#000000;fill-opacity:1;stroke:#000000;stroke-opacity:1;font-family:Sans"
       d="m 261.0395,377.21561 c 2.42069,2.53159 2.52676,8.08228 0,10.50802 -8.85564,8.50158 -25.92473,-9.36014 -36.79724,-1.50184 -7.58264,6.6947 -2.6907,19.98532 7.49346,20.24095 11.4656,2.71589 25.72808,3.38626 31.85407,15.20695 5.35856,11.0988 1.41446,27.06274 -11.07975,31.29234 -13.71226,5.11319 -32.66822,8.0276 -42.41043,-2.24362 -2.54505,-2.68325 -2.73709,-8.60771 0,-11.09476 9.78245,-8.88879 27.15276,10.98583 39.47175,3.78715 8.00029,-5.43383 6.1862,-19.6935 -3.34713,-22.41619 -11.65666,-4.36108 -27.33385,-2.95604 -34.34023,-15.27113 -5.5102,-11.03016 -0.39671,-26.2453 11.69817,-30.18636 12.05631,-4.39598 28.81977,-7.35479 37.45733,1.67849 z"
       id="path3798"
       inkscape:connector-curvature="0"
       sodipodi:nodetypes="aaccccaacccca" />
    <path
       style="font-size:109.24073029px;font-style:normal;font-weight:normal;line-height:125%;letter-spacing:0px;word-spacing:0px;fill:#000000;fill-opacity:1;stroke:none;font-family:Sans"
       d="m 328.72822,405.96598 c 5.64055,-13.14936 25.85319,-18.07501 35.25787,-6.34748 7.45475,10.46696 4.42246,23.8557 5.06732,35.86465 0,6.2519 4.54387,14.46158 0,18.75571 -2.39449,2.26288 -7.5926,1.82451 -9.86794,-0.55814 -9.43869,-9.88388 0.47064,-27.37009 -0.42761,-40.99801 -0.23776,-10.84759 -13.97281,-14.23343 -21.53525,-8.24023 -9.32873,7.16721 -6.30824,19.77057 -6.84084,29.98547 0,6.60364 4.79951,15.27519 0,19.81091 -2.39449,2.26288 -7.59261,1.82452 -9.86794,-0.55814 -9.44442,-9.88994 0.46994,-27.38661 -0.42759,-41.02302 -0.24554,-10.82079 -14.02537,-14.22278 -21.54192,-8.18522 -9.30083,7.18319 -12.02542,12.6036 -12.54849,22.81261 0,6.60364 11.69529,19.98394 5.71429,26.95377 -2.1455,2.50021 -7.81234,2.01649 -9.86794,-0.55814 -12.36419,-15.48612 -7.57689,-68.16273 9.86794,-58.62475 0.3509,3.53142 -1.37712,12.84295 2.70783,5.00762 8.63054,-10.56001 28.89362,-9.37193 33.72601,4.37554 z"
       id="path3796"
       inkscape:connector-curvature="0"
       sodipodi:nodetypes="cccaacccaacccaacccc" />
    <path
       style="font-size:109.24073029px;font-style:normal;font-weight:normal;line-height:125%;letter-spacing:0px;word-spacing:0px;fill:#000000;fill-opacity:1;stroke:none;font-family:Sans"
       d="m 388.6826,394.49784 c 0.48507,-3.05596 9.56151,-1.93986 9.81459,0.55813 1.98852,19.62715 3.09266,39.69918 0,59.18289 -0.48507,3.05596 -9.56151,1.93986 -9.81459,-0.55814 -1.98852,-19.62715 -3.09266,-39.69917 0,-59.18288 z"
       id="path3794"
       inkscape:connector-curvature="0"
       sodipodi:nodetypes="sssss" />
    <path
       style="font-size:109.24073029px;font-style:normal;font-weight:normal;line-height:125%;letter-spacing:0px;word-spacing:0px;fill:#000000;fill-opacity:1;stroke:none;font-family:Sans"
       d="m 388.6826,371.24151 c 2.38193,-2.25032 7.56427,-1.82379 9.81459,0.55814 2.71723,2.87615 2.87615,9.1529 0,11.87013 -2.38193,2.25032 -7.56427,1.82379 -9.81459,-0.55814 -2.71723,-2.87615 -2.87615,-9.1529 0,-11.87013 z"
       id="path3792"
       inkscape:connector-curvature="0"
       sodipodi:nodetypes="aaaaa" />
    <path
       style="font-size:109.24073029px;font-style:normal;font-weight:normal;line-height:125%;letter-spacing:0px;word-spacing:0px;fill:#000000;fill-opacity:1;stroke:none;font-family:Sans"
       d="m 408.36514,374.60194 c 5.87895,-5.87895 59.63422,-6.82104 67.36867,0 2.28409,2.01435 1.16494,7.05023 -1.11627,9.06784 -6.77999,5.99654 -18.10269,0 -27.15403,0 0,23.52302 8.06186,46.79293 0,70.56908 -1.15902,3.4182 -10.09814,3.53478 -10.82806,0 -5.20472,-25.20472 0,-47.04606 0,-70.56908 -9.42344,0 -21.60693,6.66338 -28.27031,0 -2.13731,-2.13731 -2.13731,-6.93053 0,-9.06784 z"
       id="text3785"
       inkscape:connector-curvature="0"
       sodipodi:nodetypes="ssacsscas" />
    <path
       style="font-size:109.24073029px;font-style:normal;font-weight:normal;line-height:125%;letter-spacing:0px;word-spacing:0px;fill:#000000;fill-opacity:1;stroke:none;font-family:Sans"
       d="m 234.37842,425.43376 c 2.38193,-2.25032 7.56427,-1.82379 9.81459,0.55814 2.71723,2.87615 2.87615,9.1529 0,11.87013 -2.38193,2.25032 -7.56427,1.82379 -9.81459,-0.55814 -2.71723,-2.87615 -2.87615,-9.1529 0,-11.87013 z"
       id="path3792-2"
       inkscape:connector-curvature="0"
       sodipodi:nodetypes="aaaaa" />
  </g>
</svg>
